<?xml version="1.0" standalone="no"?>
<!DOCTYPE svg PUBLIC "-//W3C//DTD SVG 20010904//EN"
 "http://www.w3.org/TR/2001/REC-SVG-20010904/DTD/svg10.dtd">
<svg version="1.0" xmlns="http://www.w3.org/2000/svg"
 width="2048.000000pt" height="2048.000000pt" viewBox="0 0 2048.000000 2048.000000"
 preserveAspectRatio="xMidYMid meet">

<g transform="translate(0.000000,2048.000000) scale(0.100000,-0.100000)"
fill="#000000" stroke="none">
<path d="M10907 17139 c-198 -16 -363 -75 -542 -193 -293 -193 -464 -445 -548
-806 -19 -82 -22 -122 -21 -295 1 -148 5 -221 18 -280 22 -105 75 -305 86
-325 27 -50 100 -294 100 -334 0 -82 -96 -420 -131 -462 -6 -8 -24 -14 -39
-14 -24 0 -240 -38 -392 -70 -255 -52 -472 -141 -1052 -431 -110 -56 -266
-136 -346 -179 -80 -43 -197 -104 -260 -137 -237 -122 -498 -268 -585 -326
-49 -34 -137 -106 -194 -161 -90 -88 -330 -360 -473 -539 -27 -33 -90 -109
-142 -171 -51 -61 -184 -219 -294 -351 -111 -132 -251 -296 -312 -365 -61 -69
-138 -158 -172 -198 l-61 -72 -989 2 -988 3 0 -302 0 -303 900 0 900 0 6 -27
c29 -133 70 -222 141 -309 60 -74 83 -95 168 -148 384 -242 899 -30 1020 419
l18 65 1004 0 1004 0 -7 -22 c-82 -271 -122 -372 -223 -571 -148 -293 -185
-426 -221 -797 -12 -118 -27 -240 -35 -270 -30 -117 -101 -279 -379 -865 -29
-60 -85 -181 -126 -267 -40 -87 -78 -158 -83 -158 -5 0 -21 9 -36 19 -44 32
-219 117 -316 154 -174 66 -379 116 -540 132 -33 3 -98 10 -145 15 -47 5 -116
12 -155 15 -145 11 -406 37 -570 57 -203 24 -223 33 -322 146 -139 158 -268
278 -336 312 -80 39 -186 56 -261 40 -121 -25 -197 -91 -652 -565 -496 -517
-639 -683 -706 -820 -38 -77 -39 -83 -36 -165 3 -64 10 -98 28 -135 33 -68
117 -150 187 -183 50 -23 71 -26 153 -27 109 0 156 13 300 82 460 222 550 262
710 314 155 50 207 47 375 -20 220 -88 233 -94 865 -410 612 -306 1119 -549
1300 -623 157 -65 225 -79 406 -85 183 -6 253 3 389 49 280 96 439 234 865
748 57 69 178 199 270 290 141 140 222 232 390 444 66 83 221 266 231 272 7 4
36 -19 72 -57 34 -35 97 -102 142 -149 44 -47 130 -139 190 -205 204 -222 316
-333 340 -339 13 -3 45 1 71 10 44 15 47 14 68 -3 11 -11 59 -53 106 -94 47
-41 87 -76 90 -79 7 -7 107 -91 260 -219 166 -138 269 -237 282 -270 12 -32
33 -196 58 -446 31 -313 70 -501 148 -721 61 -170 114 -285 335 -729 240 -480
298 -609 362 -805 56 -172 59 -215 27 -385 -31 -156 -28 -338 7 -425 45 -116
123 -190 239 -229 61 -21 74 -21 1376 -21 874 0 1341 4 1393 11 362 49 703
247 950 551 182 224 289 487 328 811 50 416 -89 870 -363 1187 -308 355 -749
533 -1213 491 -179 -16 -334 -62 -514 -151 -313 -155 -528 -378 -689 -715 -93
-195 -126 -340 -133 -596 -7 -226 8 -331 72 -524 24 -71 42 -132 40 -133 -7
-7 -349 204 -385 238 -28 26 -43 53 -60 105 -22 72 -106 553 -135 773 -8 67
-18 128 -20 135 -2 6 -18 116 -35 242 -17 127 -39 298 -50 380 -11 83 -36 292
-55 465 -42 370 -84 731 -91 780 -21 145 -38 236 -55 302 -20 81 -66 215 -79
233 -4 6 -15 30 -24 55 -24 61 -91 171 -271 445 -84 127 -194 295 -245 375
-51 80 -121 188 -155 240 -64 98 -309 478 -455 705 -46 72 -134 207 -196 301
-61 94 -115 181 -119 193 -4 12 -2 43 4 69 6 26 22 99 35 162 24 109 103 468
111 500 2 8 22 101 45 205 22 105 43 198 46 208 5 16 133 17 2505 17 l2499 0
0 300 0 300 -2428 0 c-1336 0 -2431 2 -2434 5 -6 7 -4 18 73 380 33 154 69
321 79 370 11 50 29 146 41 215 12 69 23 126 24 128 3 3 76 14 210 32 39 5
178 25 310 45 132 19 387 55 566 79 506 69 596 89 847 192 142 58 487 239 627
329 28 17 70 43 95 57 25 14 117 67 205 118 584 340 562 330 765 341 157 8
168 10 244 35 124 41 237 119 321 221 328 397 145 980 -346 1104 -114 29 -280
23 -387 -15 -131 -45 -169 -72 -317 -222 -77 -78 -158 -150 -180 -161 -44 -23
-238 -87 -385 -128 -52 -15 -273 -83 -490 -152 -217 -70 -489 -156 -605 -192
l-210 -66 -440 0 c-242 1 -561 6 -710 13 -148 7 -315 14 -370 16 -55 3 -101 5
-103 5 -1 1 21 29 50 64 128 150 228 332 292 532 38 119 91 332 101 405 9 66
15 102 21 132 22 107 32 285 29 488 -2 124 -7 245 -10 270 -7 45 -6 46 54 108
66 68 109 149 136 252 24 93 16 289 -16 380 -28 80 -55 127 -77 135 -10 2 -33
0 -52 -5 -19 -6 -102 -9 -185 -7 -164 4 -300 28 -540 94 -356 97 -589 130
-808 112z m533 -1104 c240 -31 329 -37 462 -33 119 5 138 3 144 -11 13 -30 16
-380 5 -494 -33 -308 -106 -597 -199 -782 -41 -84 -119 -189 -187 -254 -165
-159 -386 -170 -610 -32 -84 51 -153 119 -219 214 -49 71 -100 95 -164 78 -48
-14 -96 -64 -113 -121 -11 -36 -10 -47 17 -112 83 -207 317 -396 583 -473 23
-7 23 -10 18 -69 -9 -86 -48 -203 -93 -277 -41 -69 -120 -159 -138 -159 -13 0
-664 650 -721 719 -21 25 -34 51 -31 60 78 246 107 343 125 421 13 52 45 160
71 240 78 235 76 214 31 303 -108 216 -91 448 39 515 91 47 179 10 244 -102
53 -91 107 -117 174 -82 41 21 68 55 97 121 98 223 168 304 290 335 44 11 49
11 175 -5z m4645 -1315 c149 -72 224 -258 165 -413 -42 -111 -132 -195 -240
-224 -25 -7 -93 -12 -152 -13 -200 0 -303 -35 -563 -187 -205 -120 -236 -138
-385 -223 -80 -46 -212 -123 -295 -172 -172 -102 -555 -294 -665 -333 -118
-42 -254 -72 -452 -100 -101 -14 -226 -32 -278 -39 -52 -8 -96 -13 -96 -13 -6
9 -23 772 -17 777 4 5 109 10 233 13 268 6 288 10 615 117 132 43 386 123 565
179 179 55 366 114 415 130 50 15 124 38 165 50 134 39 223 72 305 111 82 39
114 67 235 209 61 70 119 115 189 143 65 26 187 20 256 -12z m-8162 -1502 c15
-35 52 -130 83 -213 31 -82 79 -208 106 -279 27 -72 51 -140 51 -153 2 -21
-10 -27 -133 -68 -74 -25 -184 -70 -245 -99 -115 -56 -160 -92 -492 -386 -65
-58 -143 -126 -173 -150 -30 -25 -82 -67 -115 -95 -33 -27 -134 -111 -224
-185 -222 -182 -280 -234 -313 -280 -47 -64 -68 -141 -78 -287 -7 -117 -12
-141 -39 -198 -41 -88 -115 -165 -193 -200 -54 -24 -70 -27 -143 -23 -95 5
-147 29 -209 98 -52 58 -77 121 -83 211 -11 149 47 270 213 447 128 136 344
384 504 577 299 361 628 750 711 840 21 22 47 52 59 67 31 41 190 156 320 233
202 119 351 204 361 204 4 1 18 -27 32 -61z m983 -955 c-11 -223 -35 -570 -47
-678 -6 -55 -12 -111 -13 -125 l-3 -25 -833 -3 c-459 -1 -837 1 -841 5 -4 5
18 31 50 58 634 550 655 567 730 604 77 39 318 118 660 216 157 46 290 83 295
84 5 1 6 -57 2 -136z m3603 -4553 c229 -335 314 -484 347 -610 25 -96 54 -254
74 -412 11 -84 22 -174 26 -199 l6 -46 -53 -7 c-30 -4 -101 -14 -159 -22 -104
-14 -231 -29 -505 -59 -77 -8 -150 -16 -162 -18 -25 -5 -23 -10 -43 143 -30
236 -57 275 -395 563 -316 270 -485 418 -485 426 0 9 180 177 268 251 234 195
546 385 737 447 l30 10 90 -136 c50 -75 151 -224 224 -331z m-4251 329 c341
-202 524 -313 707 -429 116 -73 211 -133 212 -134 2 -1 -29 -38 -68 -82 -145
-161 -347 -392 -424 -484 -230 -274 -415 -397 -644 -430 -96 -13 -242 1 -337
34 -73 25 -466 213 -496 237 -15 13 -14 26 17 174 19 88 48 203 66 255 42 128
175 380 200 380 4 0 43 -17 86 -38 122 -60 138 -65 189 -57 79 12 108 51 256
355 73 149 136 270 141 270 5 0 48 -23 95 -51z"/>
</g>
</svg>
